<?xml version="1.0" encoding="utf-8"?>
<!-- Generator: Adobe Illustrator 26.0.1, SVG Export Plug-In . SVG Version: 6.00 Build 0)  -->
<svg version="1.1" id="Layer_1" xmlns="http://www.w3.org/2000/svg" xmlns:xlink="http://www.w3.org/1999/xlink" x="0px" y="0px"
	 viewBox="0 0 21 20" style="enable-background:new 0 0 21 20;" xml:space="preserve">
<style type="text/css">
	.st0{fill:none;stroke:#F15858;stroke-width:1.5;stroke-miterlimit:10;}
</style>
<path class="st0" d="M14.89,1.47c-0.98-0.48-2.52-1.06-4.39-0.99C6.19,0.65,0.65,4.18,0.65,9.91c0,5.21,4.41,9.43,9.85,9.43
	s9.85-4.22,9.85-9.43c0-0.96-0.2-1.9-0.2-1.9s-0.34-1.57-1.25-3.02c-0.04-0.06-0.08-0.12-0.08-0.12c-0.18-0.28-0.38-0.56-0.61-0.84
	C18.19,4.03,18.18,4.01,18.18,4c0,0-0.02,0.02-0.02,0.02c-0.07,0.1-7.56,11.36-7.63,11.46L5.68,9.28"/>
<path class="st0" d="M15.22,1.64"/>
</svg>
