<svg id="Layer_1" data-name="Layer 1" xmlns="http://www.w3.org/2000/svg" viewBox="0 0 21.2 20.36"><defs><style>.cls-1{fill:none;stroke:#18a8c3;stroke-miterlimit:10;stroke-width:1.5px;}</style></defs><path class="cls-1" d="M18.18,4a.05.05,0,0,1,.05,0c.3-.11,1.48,1.9,1.92,4.05a11.18,11.18,0,0,1,.2,1.9,9.65,9.65,0,0,1-9.85,9.43A9.65,9.65,0,0,1,.65,9.91C.65,4.18,6.19.65,10.5.49a9.17,9.17,0,0,1,4.39,1" transform="translate(0.1 0.27)"/><polyline class="cls-1" points="5.78 9.55 10.63 15.76 18.28 4.27"/><path class="cls-1" d="M15.22,1.64" transform="translate(0.1 0.27)"/></svg>